<?xml version="1.0" standalone="no"?>
<!DOCTYPE svg PUBLIC "-//W3C//DTD SVG 20010904//EN"
 "http://www.w3.org/TR/2001/REC-SVG-20010904/DTD/svg10.dtd">
<svg version="1.0" xmlns="http://www.w3.org/2000/svg"
 width="700.000000pt" height="700.000000pt" viewBox="0 0 700.000000 700.000000"
 preserveAspectRatio="xMidYMid meet">
<metadata>
Created by potrace 1.14, written by Peter Selinger 2001-2017
</metadata>
<g transform="translate(0.000000,700.000000) scale(0.100000,-0.100000)"
fill="#e50914" stroke="none">
<path d="M3480 6300 c-817 -63 -1421 -387 -1743 -936 -175 -298 -259 -695
-229 -1071 42 -516 275 -904 724 -1206 241 -162 417 -244 933 -437 448 -167
582 -238 632 -334 22 -42 13 -123 -17 -164 -102 -138 -529 -149 -1010 -28
-237 60 -494 150 -730 256 -191 85 -272 105 -357 86 -18 -4 -41 -3 -52 4 -19
10 -21 8 -21 -22 0 -18 -10 -58 -22 -88 -22 -54 -22 -65 -26 -625 -2 -347 0
-599 6 -642 29 -205 145 -308 476 -422 448 -155 913 -231 1412 -231 420 0 777
53 1105 165 143 49 405 181 514 259 343 247 562 588 647 1007 20 101 23 143
23 364 0 286 -11 369 -76 571 -119 370 -385 693 -754 917 -186 113 -420 219
-695 316 -559 197 -643 232 -719 298 -40 36 -44 44 -49 94 -4 52 -3 56 36 95
59 61 109 76 290 81 364 12 739 -67 1256 -267 86 -33 124 -42 176 -43 116 -2
193 55 232 173 16 48 24 1122 9 1235 -20 148 -110 280 -231 337 -209 98 -685
208 -1044 243 -196 18 -550 26 -696 15z"/>
</g>
</svg>
